<?xml version="1.0" encoding="UTF-8"?>
<!DOCTYPE svg PUBLIC "-//W3C//DTD SVG 1.1//EN" "http://www.w3.org/Graphics/SVG/1.1/DTD/svg11.dtd">
<svg version="1.1" xmlns="http://www.w3.org/2000/svg" xmlns:xlink="http://www.w3.org/1999/xlink" x="0" y="0" width="320" height="520" viewBox="0, 0, 320, 520">
  <g id="Layer_x0020_1">
    <path d="M153.198,17.192 L149.942,28.25 L149.942,28.25 C149.734,28.956 149.629,29.66 149.629,30.338 L149.629,30.338 L149.629,351.296 L149.629,351.296 C149.628,352.767 150.126,354.059 151.047,354.978 L151.047,354.978 L154.303,358.227 L154.303,358.227 C156.117,360.036 159.264,360.111 162.137,358.413 L162.137,358.413 L311.118,270.349 L311.118,270.349 C314.834,268.153 316.87,263.755 315.666,260.525 C315.56,260.24 315.429,259.969 315.276,259.715 L315.276,259.715 L166.294,12.511 L166.294,12.511 C164.562,9.636 160.321,9.447 156.821,12.09 C153.32,14.732 151.887,19.205 153.619,22.081 C153.619,22.081 153.619,22.081 153.619,22.081 L302.602,269.288 L306.76,258.654 L157.775,346.719 L165.61,346.906 L162.353,343.656 L163.771,347.338 L163.771,26.377 L163.457,28.465 L166.715,17.4 C166.715,17.4 166.715,17.4 166.715,17.4 C167.863,13.495 165.769,10.283 162.036,10.226 C158.304,10.168 154.347,13.287 153.198,17.192 L153.198,17.192" fill="#E4E4E4"/>
    <path d="M154.152,15.043 L5.166,262.248 L5.166,262.248 C3.135,265.617 3.586,269.303 6.219,270.859 L6.219,270.859 L155.204,358.923 L155.204,358.923 C158.096,360.633 162.568,359.173 165.192,355.662 C166.373,354.082 167.027,352.273 167.027,350.586 L167.027,350.586 L167.027,194.803 L167.027,194.801 L167.027,15.317 L167.027,15.317 C167.028,11.568 163.863,9.415 159.958,10.507 C156.052,11.6 152.886,15.525 152.885,19.274 L152.885,198.762 L152.885,198.76 L152.885,354.546 L164.709,346.209 L15.721,258.143 L16.773,266.755 L165.76,19.548 C165.76,19.548 165.76,19.548 165.76,19.548 C167.991,15.846 167.201,11.837 163.995,10.593 C160.79,9.349 156.383,11.342 154.152,15.043 L154.152,15.043" fill="#E4E4E4"/>
    <path d="M155.01,377.308 L153.176,379.544 L153.176,379.544 C151.816,381.202 151.05,383.166 151.05,384.992 L151.05,384.992 L151.05,499.321 L151.05,499.321 C151.05,499.983 151.15,500.613 151.349,501.191 L151.349,501.191 L153.183,506.546 L153.183,506.546 C154.305,509.823 158.246,510.758 161.987,508.634 C163.294,507.892 164.459,506.835 165.343,505.59 L165.343,505.59 L314.415,295.646 L314.415,295.646 C316.946,292.083 316.587,287.899 313.614,286.302 C311.746,285.298 309.187,285.527 306.853,286.905 L306.853,286.905 L157.782,374.923 L157.782,374.923 C154.066,377.116 152.027,381.514 153.228,384.745 C154.429,387.976 158.415,388.817 162.131,386.624 L311.208,298.603 L303.646,289.862 L154.57,499.811 L166.729,498.854 L164.893,493.494 L165.192,495.363 L165.192,381.031 L163.066,386.479 L164.903,384.239 C164.903,384.239 164.903,384.239 164.903,384.239 C167.693,380.835 167.741,376.524 165.009,374.61 C162.278,372.696 157.801,373.904 155.01,377.308 L155.01,377.308" fill="#E4E4E4"/>
    <path d="M167.027,500.72 L167.027,378.795 L167.027,378.795 C167.028,376.879 166.185,375.288 164.706,374.415 L164.706,374.415 L15.722,286.397 L15.722,286.397 C12.83,284.687 8.358,286.147 5.733,289.659 C3.68,292.406 3.312,295.703 4.823,297.83 L4.823,297.83 L153.808,507.775 L153.808,507.775 C155.738,510.495 160.054,510.427 163.45,507.624 C166.845,504.821 168.034,500.345 166.104,497.625 C166.104,497.625 166.104,497.625 166.104,497.625 L17.117,287.678 L6.218,299.112 L155.207,387.132 L152.885,382.752 L152.885,504.681 C152.885,504.681 152.885,504.681 152.885,504.681 C152.885,508.43 156.051,510.582 159.957,509.488 C163.862,508.395 167.028,504.469 167.027,500.72 L167.027,500.72" fill="#E4E4E4"/>
    <path d="M162.137,358.413 L311.118,270.349 L311.118,270.349 C314.834,268.153 316.87,263.755 315.666,260.525 C315.223,259.338 314.375,258.424 313.235,257.906 L313.235,257.906 L164.254,190.187 L164.254,190.187 C161.152,188.777 156.714,190.586 154.341,194.228 C153.397,195.677 152.885,197.27 152.885,198.762 L152.885,198.762 L152.885,354.545 L152.885,354.545 C152.885,358.294 156.05,360.448 159.955,359.355 C163.861,358.262 167.027,354.336 167.027,350.587 C167.027,350.587 167.027,350.587 167.027,350.587 L167.027,194.801 L155.659,203.375 L304.643,271.096 L306.76,258.654 L157.775,346.719 C157.775,346.719 157.775,346.719 157.775,346.719 C154.061,348.916 152.025,353.314 153.23,356.543 C154.434,359.772 158.422,360.609 162.137,358.413 L162.137,358.413" fill="#E4E4E4"/>
    <path d="M6.219,270.859 L155.204,358.923 L155.204,358.923 C158.096,360.633 162.568,359.173 165.192,355.662 C166.373,354.082 167.027,352.273 167.027,350.586 L167.027,350.586 L167.027,194.803 L167.027,194.803 C167.028,191.053 163.863,188.9 159.958,189.993 C159.533,190.112 159.108,190.267 158.69,190.457 L158.69,190.457 L9.707,258.176 L9.707,258.176 C5.864,259.921 3.315,264.168 4.012,267.662 C4.71,271.155 8.39,272.572 12.233,270.826 L161.223,203.105 L152.885,198.76 L152.885,354.546 L164.709,346.209 L15.721,258.143 C15.721,258.143 15.721,258.143 15.721,258.143 C12.828,256.434 8.356,257.895 5.732,261.407 C3.109,264.918 3.326,269.15 6.219,270.859 L6.219,270.859" fill="#E4E4E4"/>
  </g>
</svg>
